<svg width="31" height="23" viewBox="0 0 31 23" fill="none" xmlns="http://www.w3.org/2000/svg">
<path d="M28.2754 0.455078H9.99023C8.48746 0.455078 7.26562 1.59865 7.26562 3.00391C7.26562 4.40973 8.48746 5.55273 9.99023 5.55273H28.2754C29.7776 5.55273 31 4.40973 31 3.00391C31 1.59865 29.7776 0.455078 28.2754 0.455078Z" fill="#FC6B3F"/>
<path d="M28.2754 8.95117H9.99023C8.48746 8.95117 7.26562 10.0947 7.26562 11.5C7.26562 12.9058 8.48746 14.0488 9.99023 14.0488H28.2754C29.7776 14.0488 31 12.9058 31 11.5C31 10.0947 29.7776 8.95117 28.2754 8.95117Z" fill="#FC6B3F"/>
<path d="M28.2754 17.4473H9.99023C8.48746 17.4473 7.26562 18.5908 7.26562 19.9961C7.26562 21.4019 8.48746 22.5449 9.99023 22.5449H28.2754C29.7776 22.5449 31 21.4019 31 19.9961C31 18.5908 29.7776 17.4473 28.2754 17.4473Z" fill="#FC6B3F"/>
<path d="M2.72461 0.455078C1.22184 0.455078 0 1.59865 0 3.00391C0 4.40973 1.22184 5.55273 2.72461 5.55273C4.22678 5.55273 5.44922 4.40973 5.44922 3.00391C5.44922 1.59865 4.22678 0.455078 2.72461 0.455078Z" fill="#FC6B3F"/>
<path d="M2.72461 8.95117C1.22184 8.95117 0 10.0947 0 11.5C0 12.9058 1.22184 14.0488 2.72461 14.0488C4.22678 14.0488 5.44922 12.9058 5.44922 11.5C5.44922 10.0947 4.22678 8.95117 2.72461 8.95117Z" fill="#FC6B3F"/>
<path d="M2.72461 17.4473C1.22184 17.4473 0 18.5908 0 19.9961C0 21.4019 1.22184 22.5449 2.72461 22.5449C4.22678 22.5449 5.44922 21.4019 5.44922 19.9961C5.44922 18.5908 4.22678 17.4473 2.72461 17.4473Z" fill="#FC6B3F"/>
</svg>
